<?xml version="1.0" encoding="UTF-8"?>
<svg xmlns="http://www.w3.org/2000/svg" xmlns:xlink="http://www.w3.org/1999/xlink" width="100pt" height="100pt" viewBox="0 0 100 100" version="1.1">
<g id="surface1">
<path style=" stroke:none;fill-rule:evenodd;fill:rgb(0%,0%,0%);fill-opacity:1;" d="M 98.34375 76.09375 L 56.800781 3.859375 C 55.75 2.046875 53.570312 0.855469 51.125 0.75 C 48.675781 0.617188 46.335938 1.609375 45.054688 3.328125 L 0 63.078125 C -1.398438 64.921875 -1.371094 67.257812 0.0742188 69.078125 L 22.105469 97.007812 C 23.816406 99.164062 27.054688 100.136719 30.058594 99.40625 L 93.984375 83.921875 C 95.933594 83.457031 97.539062 82.320312 98.386719 80.8125 C 99.222656 79.308594 99.207031 77.582031 98.347656 76.089844 Z M 89.042969 79.191406 L 34.796875 92.324219 C 33.144531 92.726562 31.554688 91.550781 31.898438 90.183594 L 51.277344 14.203125 C 51.640625 12.78125 54.039062 12.558594 54.796875 13.871094 L 90.671875 76.253906 C 90.996094 76.816406 91 77.464844 90.683594 78.03125 C 90.371094 78.59375 89.769531 79.019531 89.039062 79.191406 Z M 89.042969 79.191406 "/>
</g>
</svg>
